<?xml version="1.0" encoding="UTF-8"?>
<!DOCTYPE svg PUBLIC "-//W3C//DTD SVG 1.1//EN" "http://www.w3.org/Graphics/SVG/1.1/DTD/svg11.dtd">
<svg xmlns="http://www.w3.org/2000/svg" version="1.1" width="2000px" height="600px" style="shape-rendering:geometricPrecision; text-rendering:geometricPrecision; image-rendering:optimizeQuality; fill-rule:evenodd; clip-rule:evenodd" xmlns:xlink="http://www.w3.org/1999/xlink">
    <g><path style="opacity:1" fill="#2d2e30" d="M 1080.5,116.5 C 1096.42,114.531 1110.42,118.698 1122.5,129C 1168,174.5 1213.5,220 1259,265.5C 1275.62,287.826 1275.62,310.16 1259,332.5C 1213.17,378.333 1167.33,424.167 1121.5,470C 1099.78,485.302 1078.11,485.302 1056.5,470C 1010.33,423.833 964.167,377.667 918,331.5C 902.667,309.828 902.667,288.161 918,266.5C 964.5,220 1011,173.5 1057.5,127C 1064.6,122.033 1072.26,118.533 1080.5,116.5 Z"/></g>
    <g><path style="opacity:1" fill="#454f5b" d="M 1084.5,156.5 C 1087.98,156.184 1091.31,156.684 1094.5,158C 1139.67,203.167 1184.83,248.333 1230,293.5C 1231.9,297.136 1231.9,300.803 1230,304.5C 1184.83,349.667 1139.67,394.833 1094.5,440C 1091.26,441.368 1087.93,441.701 1084.5,441C 1039,395.5 993.5,350 948,304.5C 946.632,301.262 946.299,297.928 947,294.5C 993.035,248.632 1038.87,202.632 1084.5,156.5 Z"/></g>
    <g><path style="opacity:1" fill="#ec523b" d="M 1086.5,170.5 C 1089.69,170.618 1092.69,171.451 1095.5,173C 1111.67,189.167 1127.83,205.333 1144,221.5C 1145.91,225.471 1145.91,229.471 1144,233.5C 1127.83,249.667 1111.67,265.833 1095.5,282C 1091.67,284.753 1087.67,285.086 1083.5,283C 1067,266.5 1050.5,250 1034,233.5C 1032,229.5 1032,225.5 1034,221.5C 1051.12,203.882 1068.62,186.882 1086.5,170.5 Z"/></g>
    <g><path style="opacity:1" fill="#2d2e30" d="M 409.5,223.5 C 429.098,221.824 448.098,224.324 466.5,231C 475.819,236.133 481.319,243.966 483,254.5C 483.667,282.833 483.667,311.167 483,339.5C 478.787,355.705 468.287,364.872 451.5,367C 430.016,370.804 408.683,370.137 387.5,365C 371.236,359.738 363.069,348.571 363,331.5C 362.333,308.167 362.333,284.833 363,261.5C 362.954,246.892 369.454,236.392 382.5,230C 391.38,226.73 400.38,224.563 409.5,223.5 Z M 416.5,261.5 C 422.577,261.196 428.577,261.696 434.5,263C 436.667,263.833 438.167,265.333 439,267.5C 439.667,287.167 439.667,306.833 439,326.5C 437.622,329.108 435.455,330.608 432.5,331C 425.023,332.011 417.69,331.511 410.5,329.5C 409.667,328.5 408.833,327.5 408,326.5C 407.333,306.833 407.333,287.167 408,267.5C 409.943,264.122 412.776,262.122 416.5,261.5 Z"/></g>
    <g><path style="opacity:1" fill="#2d2e30" d="M 293.5,273.5 C 293.56,274.043 293.893,274.376 294.5,274.5C 295.499,260.516 295.833,246.516 295.5,232.5C 295.329,230.007 296.329,228.174 298.5,227C 310.5,226.333 322.5,226.333 334.5,227C 336.333,227.5 337.5,228.667 338,230.5C 338.667,274.5 338.667,318.5 338,362.5C 337.5,364.333 336.333,365.5 334.5,366C 321.738,366.96 309.071,366.627 296.5,365C 295.773,363.601 295.273,362.101 295,360.5C 294.667,351.833 294.333,343.167 294,334.5C 283.311,321.979 272.811,309.312 262.5,296.5C 261.667,318.826 261.167,341.159 261,363.5C 260.5,364.667 259.667,365.5 258.5,366C 246.5,366.667 234.5,366.667 222.5,366C 220.667,365.5 219.5,364.333 219,362.5C 218.333,318.5 218.333,274.5 219,230.5C 219.5,228.667 220.667,227.5 222.5,227C 231.833,226.333 241.167,226.333 250.5,227C 251.833,227.667 253.167,228.333 254.5,229C 268.081,243.409 281.081,258.242 293.5,273.5 Z"/></g>
    <g><path style="opacity:1" fill="#2d2e30" d="M 511.5,226.5 C 537.835,226.333 564.169,226.5 590.5,227C 606.097,228.598 615.264,237.098 618,252.5C 619.125,262.653 618.458,272.653 616,282.5C 614.167,285.667 611.667,288.167 608.5,290C 619.251,292.109 626.417,298.276 630,308.5C 631.081,318.291 631.581,328.125 631.5,338C 631.624,346.905 631.124,355.738 630,364.5C 629.25,365.126 628.416,365.626 627.5,366C 621.333,366.167 615.167,366.333 609,366.5C 602.065,366.63 595.232,366.13 588.5,365C 587.809,363.933 587.309,362.766 587,361.5C 586.667,349.167 586.333,336.833 586,324.5C 585.097,323.299 583.931,322.465 582.5,322C 572.506,321.5 562.506,321.334 552.5,321.5C 552.667,335.171 552.5,348.837 552,362.5C 551.626,363.416 551.126,364.25 550.5,365C 537.595,366.628 524.595,366.961 511.5,366C 510.667,365.167 509.833,364.333 509,363.5C 508.333,318.833 508.333,274.167 509,229.5C 510.045,228.627 510.878,227.627 511.5,226.5 Z M 552.5,261.5 C 559.284,261.08 565.95,261.58 572.5,263C 574.913,266.213 575.913,269.88 575.5,274C 575.913,278.12 574.913,281.787 572.5,285C 565.924,286.377 559.257,286.877 552.5,286.5C 552.5,278.167 552.5,269.833 552.5,261.5 Z"/></g>
    <g><path style="opacity:1" fill="#2c2d2f" d="M 750.5,263.5 C 740.167,263.5 729.833,263.5 719.5,263.5C 719.5,296.167 719.5,328.833 719.5,361.5C 719.863,363.911 718.863,365.411 716.5,366C 703.5,366.667 690.5,366.667 677.5,366C 676.667,365.167 675.833,364.333 675,363.5C 674.5,330.502 674.333,297.502 674.5,264.5C 664.494,264.666 654.494,264.5 644.5,264C 642.671,263.727 641.171,262.893 640,261.5C 638.385,251.6 638.051,241.6 639,231.5C 639.11,229.152 640.277,227.652 642.5,227C 679.167,226.333 715.833,226.333 752.5,227C 753.333,227.833 754.167,228.667 755,229.5C 755.667,239.833 755.667,250.167 755,260.5C 754.411,262.863 752.911,263.863 750.5,263.5 Z"/></g>
    <g><path style="opacity:1" fill="#2d2e30" d="M 818.5,275.5 C 829.321,276.495 840.321,276.828 851.5,276.5C 851.5,261.833 851.5,247.167 851.5,232.5C 850.965,229.762 851.965,227.928 854.5,227C 866.833,226.333 879.167,226.333 891.5,227C 892.416,227.374 893.25,227.874 894,228.5C 895.651,272.774 895.984,317.108 895,361.5C 894.89,363.848 893.723,365.348 891.5,366C 879.167,366.667 866.833,366.667 854.5,366C 853.584,365.626 852.75,365.126 852,364.5C 850.562,348.557 850.062,332.557 850.5,316.5C 839.833,316.5 829.167,316.5 818.5,316.5C 818.667,332.17 818.5,347.837 818,363.5C 817.167,364.333 816.333,365.167 815.5,366C 802.833,366.667 790.167,366.667 777.5,366C 776.667,365.167 775.833,364.333 775,363.5C 774.333,318.833 774.333,274.167 775,229.5C 775.833,228.667 776.667,227.833 777.5,227C 790.167,226.333 802.833,226.333 815.5,227C 816.333,227.833 817.167,228.667 818,229.5C 818.5,244.83 818.667,260.163 818.5,275.5 Z"/></g>
    <g><path style="opacity:1" fill="#2d2e30" d="M 1308.5,226.5 C 1330.84,226.333 1353.17,226.5 1375.5,227C 1376.42,227.374 1377.25,227.874 1378,228.5C 1379.59,238.426 1379.92,248.426 1379,258.5C 1378.73,260.329 1377.89,261.829 1376.5,263C 1359.5,263.333 1342.5,263.667 1325.5,264C 1320.63,267.178 1320.3,270.845 1324.5,275C 1338.59,276.844 1352.59,279.177 1366.5,282C 1374.74,284.524 1380.57,289.691 1384,297.5C 1386.91,312.422 1387.24,327.422 1385,342.5C 1379.84,356.642 1369.67,364.476 1354.5,366C 1329.83,366.667 1305.17,366.667 1280.5,366C 1279.67,365.167 1278.83,364.333 1278,363.5C 1277.33,353.167 1277.33,342.833 1278,332.5C 1278.5,332 1279,331.5 1279.5,331C 1299.41,329.69 1319.41,329.023 1339.5,329C 1341.48,326.503 1341.98,323.669 1341,320.5C 1340.5,319.333 1339.67,318.5 1338.5,318C 1327.18,316.24 1315.85,314.573 1304.5,313C 1282.23,307.845 1273.23,293.845 1277.5,271C 1273.97,246.153 1284.31,231.32 1308.5,226.5 Z"/></g>
    <g><path style="opacity:1" fill="#2c2d2f" d="M 1433.5,360.5 C 1433.5,328.167 1433.5,295.833 1433.5,263.5C 1423.17,263.5 1412.83,263.5 1402.5,263.5C 1400.09,263.863 1398.59,262.863 1398,260.5C 1397.33,250.167 1397.33,239.833 1398,229.5C 1398.83,228.667 1399.67,227.833 1400.5,227C 1437.17,226.333 1473.83,226.333 1510.5,227C 1512.72,227.652 1513.89,229.152 1514,231.5C 1514.95,241.6 1514.62,251.6 1513,261.5C 1511.83,262.893 1510.33,263.727 1508.5,264C 1498.51,264.5 1488.51,264.666 1478.5,264.5C 1478.67,297.502 1478.5,330.502 1478,363.5C 1477.17,364.333 1476.33,365.167 1475.5,366C 1462.5,366.667 1449.5,366.667 1436.5,366C 1433.96,365.072 1432.96,363.238 1433.5,360.5 Z"/></g>
    <g><path style="opacity:1" fill="#2d2e30" d="M 1552.5,226.5 C 1572.5,226.333 1592.5,226.5 1612.5,227C 1615.97,227.807 1618.14,229.973 1619,233.5C 1627.66,254.475 1635.32,275.808 1642,297.5C 1643.6,319.13 1643.93,340.796 1643,362.5C 1642.5,364.333 1641.33,365.5 1639.5,366C 1627.17,366.667 1614.83,366.667 1602.5,366C 1601.67,365.167 1600.83,364.333 1600,363.5C 1599.5,353.172 1599.33,342.839 1599.5,332.5C 1587.83,332.5 1576.17,332.5 1564.5,332.5C 1564.67,342.839 1564.5,353.172 1564,363.5C 1563.69,364.308 1563.19,364.975 1562.5,365.5C 1550.21,366.646 1537.88,366.813 1525.5,366C 1524.67,365.167 1523.83,364.333 1523,363.5C 1522.05,340.458 1522.39,317.458 1524,294.5C 1530.77,274.293 1538.1,254.293 1546,234.5C 1547.3,231.039 1549.47,228.372 1552.5,226.5 Z M 1596.5,295.5 C 1586.83,296.833 1577.17,296.833 1567.5,295.5C 1570.34,285.157 1573.67,274.99 1577.5,265C 1580.5,264.333 1583.5,264.333 1586.5,265C 1590.37,274.978 1593.7,285.145 1596.5,295.5 Z"/></g>
    <g><path style="opacity:1" fill="#2d2e30" d="M 1670.5,226.5 C 1696.5,226.333 1722.5,226.5 1748.5,227C 1765.57,228.402 1775.07,237.568 1777,254.5C 1777.67,260.833 1777.67,267.167 1777,273.5C 1776.52,280.634 1773.35,286.134 1767.5,290C 1778.46,292.289 1785.62,298.789 1789,309.5C 1789.82,327.877 1789.65,346.21 1788.5,364.5C 1787.97,365.192 1787.31,365.692 1786.5,366C 1780.33,366.167 1774.17,366.333 1768,366.5C 1761.06,366.63 1754.23,366.13 1747.5,365C 1746.87,364.25 1746.37,363.416 1746,362.5C 1745.96,349.405 1745.3,336.405 1744,323.5C 1743.25,322.874 1742.42,322.374 1741.5,322C 1731.51,321.5 1721.51,321.334 1711.5,321.5C 1711.67,334.837 1711.5,348.171 1711,361.5C 1710.69,362.766 1710.19,363.933 1709.5,365C 1696.6,366.628 1683.6,366.961 1670.5,366C 1669.33,365.5 1668.5,364.667 1668,363.5C 1667.33,318.833 1667.33,274.167 1668,229.5C 1668.7,228.309 1669.53,227.309 1670.5,226.5 Z M 1711.5,261.5 C 1718.26,261.123 1724.92,261.623 1731.5,263C 1735.5,270.333 1735.5,277.667 1731.5,285C 1724.92,286.377 1718.26,286.877 1711.5,286.5C 1711.5,278.167 1711.5,269.833 1711.5,261.5 Z"/></g>
    <g><path style="opacity:1" fill="#a0a1a2" d="M 295.5,232.5 C 295.833,246.516 295.499,260.516 294.5,274.5C 293.893,274.376 293.56,274.043 293.5,273.5C 294.167,259.833 294.833,246.167 295.5,232.5 Z"/></g>
    <g><path style="opacity:1" fill="#5f779a" d="M 1013.5,242.5 C 1016.98,242.184 1020.31,242.684 1023.5,244C 1039.67,260.167 1055.83,276.333 1072,292.5C 1074,296.833 1074,301.167 1072,305.5C 1055.83,321.667 1039.67,337.833 1023.5,354C 1019.47,355.913 1015.47,355.913 1011.5,354C 995,337.5 978.5,321 962,304.5C 960.101,300.803 960.101,297.136 962,293.5C 979.062,276.271 996.228,259.271 1013.5,242.5 Z"/></g>
    <g><path style="opacity:1" fill="#5f779a" d="M 1155.5,242.5 C 1158.98,242.184 1162.31,242.684 1165.5,244C 1181.67,260.167 1197.83,276.333 1214,292.5C 1216,296.833 1216,301.167 1214,305.5C 1197.83,321.667 1181.67,337.833 1165.5,354C 1161.5,356 1157.5,356 1153.5,354C 1137,337.5 1120.5,321 1104,304.5C 1102.1,300.803 1102.1,297.136 1104,293.5C 1121.06,276.271 1138.23,259.271 1155.5,242.5 Z"/></g>
    <g><path style="opacity:1" fill="#8f8f91" d="M 750.5,263.5 C 740.681,264.494 730.681,264.827 720.5,264.5C 720.832,297.004 720.498,329.338 719.5,361.5C 719.5,328.833 719.5,296.167 719.5,263.5C 729.833,263.5 740.167,263.5 750.5,263.5 Z"/></g>
    <g><path style="opacity:1" fill="#959596" d="M 1402.5,263.5 C 1412.83,263.5 1423.17,263.5 1433.5,263.5C 1433.5,295.833 1433.5,328.167 1433.5,360.5C 1432.5,328.671 1432.17,296.671 1432.5,264.5C 1422.32,264.827 1412.32,264.494 1402.5,263.5 Z"/></g>
    <g><path style="opacity:1" fill="#6f6f70" d="M 851.5,232.5 C 851.5,247.167 851.5,261.833 851.5,276.5C 840.321,276.828 829.321,276.495 818.5,275.5C 829.167,275.5 839.833,275.5 850.5,275.5C 850.171,260.99 850.504,246.657 851.5,232.5 Z"/></g>
    <g><path style="opacity:1" fill="#7e7f80" d="M 1567.5,295.5 C 1577.17,296.833 1586.83,296.833 1596.5,295.5C 1597.04,295.56 1597.38,295.893 1597.5,296.5C 1587.17,297.833 1576.83,297.833 1566.5,296.5C 1566.62,295.893 1566.96,295.56 1567.5,295.5 Z"/></g>
    <g><path style="opacity:1" fill="#5f779a" d="M 1086.5,314.5 C 1089.69,314.618 1092.69,315.451 1095.5,317C 1111.33,332.833 1127.17,348.667 1143,364.5C 1145.96,368.566 1146.29,372.899 1144,377.5C 1127.83,393.667 1111.67,409.833 1095.5,426C 1091.74,428.869 1087.74,429.202 1083.5,427C 1067,410.5 1050.5,394 1034,377.5C 1032,373.5 1032,369.5 1034,365.5C 1051.09,347.906 1068.59,330.906 1086.5,314.5 Z"/></g>
</svg>