<?xml version="1.0" encoding="UTF-8"?>
<!DOCTYPE svg PUBLIC "-//W3C//DTD SVG 1.1//EN" "http://www.w3.org/Graphics/SVG/1.1/DTD/svg11.dtd">
<svg xmlns="http://www.w3.org/2000/svg" version="1.1" width="2000px" height="2000px" style="shape-rendering:geometricPrecision; text-rendering:geometricPrecision; image-rendering:optimizeQuality; fill-rule:evenodd; clip-rule:evenodd" xmlns:xlink="http://www.w3.org/1999/xlink">
    <g><path style="opacity:0.207" fill="#fcfcfc" d="M 969.5,235.5 C 1030.17,228.747 1084.5,243.747 1132.5,280.5C 1210.43,356.931 1287.93,433.931 1365,511.5C 1437.05,585.048 1509.88,657.715 1583.5,729.5C 1626.81,774.977 1670.98,819.644 1716,863.5C 1722.64,872.297 1728.98,881.297 1735,890.5C 1739.49,900.819 1744.49,910.819 1750,920.5C 1751.15,927.68 1753.48,934.346 1757,940.5C 1763.21,968.553 1765.21,997.22 1763,1026.5C 1756.2,1075.1 1735.2,1116.76 1700,1151.5C 1513.28,1338.95 1326.11,1525.95 1138.5,1712.5C 1079.22,1761.45 1012.22,1775.95 937.5,1756C 911.398,1746.9 887.398,1733.9 865.5,1717C 807.62,1659.95 749.953,1602.79 692.5,1545.5C 629.275,1480.94 565.275,1416.94 500.5,1353.5C 464.999,1316.83 428.833,1280.83 392,1245.5C 385.314,1238.32 378.814,1230.98 372.5,1223.5C 342.447,1194.45 312.78,1165.11 283.5,1135.5C 240.399,1081.37 225.566,1020.04 239,951.5C 243.119,938.477 247.452,925.477 252,912.5C 258.402,899.646 265.736,887.312 274,875.5C 283.001,864.336 292.501,853.669 302.5,843.5C 488.309,657.524 674.309,471.691 860.5,286C 892.675,259.527 929.008,242.694 969.5,235.5 Z"/></g>
    <g><path style="opacity:1" fill="#2c2d2f" d="M 977.5,237.5 C 1039.1,233.088 1093.1,250.922 1139.5,291C 1329,480.5 1518.5,670 1708,859.5C 1763.15,925.28 1775.82,998.614 1746,1079.5C 1736.34,1101.49 1723.68,1121.49 1708,1139.5C 1518.5,1329 1329,1518.5 1139.5,1708C 1088.78,1751.69 1030.11,1768.69 963.5,1759C 923.962,1751.56 889.295,1734.56 859.5,1708C 669.667,1518.17 479.833,1328.33 290,1138.5C 242.755,1081.97 227.422,1017.64 244,945.5C 252.842,913.47 268.176,885.137 290,860.5C 480.167,670.333 670.333,480.167 860.5,290C 894.129,260.62 933.129,243.12 977.5,237.5 Z"/></g>
    <g><path style="opacity:1" fill="#454f5b" d="M 989.5,404.5 C 1002.8,402.249 1014.8,405.082 1025.5,413C 1212.67,600.167 1399.83,787.333 1587,974.5C 1595.03,987.299 1596.7,1000.97 1592,1015.5C 1590.5,1019.16 1588.5,1022.5 1586,1025.5C 1399.17,1212.33 1212.33,1399.17 1025.5,1586C 1012.54,1594.84 998.538,1596.84 983.5,1592C 979.835,1590.5 976.502,1588.5 973.5,1586C 786.333,1398.83 599.167,1211.67 412,1024.5C 404.463,1012.43 402.463,999.431 406,985.5C 407.746,981.673 409.746,978.007 412,974.5C 599.167,787.333 786.333,600.167 973.5,413C 978.483,409.344 983.816,406.511 989.5,404.5 Z"/></g>
    <g><path style="opacity:1" fill="#ed523b" d="M 991.5,464.5 C 1006.68,463.036 1019.68,467.536 1030.5,478C 1095.33,542.833 1160.17,607.667 1225,672.5C 1239.18,690.069 1240.18,708.402 1228,727.5C 1160.5,795 1093,862.5 1025.5,930C 1012.54,938.836 998.538,940.836 983.5,936C 980.167,934 976.833,932 973.5,930C 905.667,862.167 837.833,794.333 770,726.5C 759.151,708.116 760.151,690.45 773,673.5C 840.527,605.639 908.361,538.139 976.5,471C 981.367,468.226 986.367,466.059 991.5,464.5 Z"/></g>
    <g><path style="opacity:1" fill="#60789b" d="M 691.5,762.5 C 704.244,761.103 715.91,763.936 726.5,771C 794.333,838.833 862.167,906.667 930,974.5C 938.83,988.917 939.83,1003.92 933,1019.5C 931.667,1021.5 930.333,1023.5 929,1025.5C 861.5,1093 794,1160.5 726.5,1228C 707.412,1240.21 689.079,1239.21 671.5,1225C 605.667,1159.17 539.833,1093.33 474,1027.5C 460.036,1008.81 460.036,990.138 474,971.5C 541.527,903.639 609.361,836.139 677.5,769C 682.137,766.511 686.804,764.344 691.5,762.5 Z"/></g>
    <g><path style="opacity:1" fill="#60789b" d="M 1284.5,762.5 C 1297.28,760.929 1308.94,763.762 1319.5,771C 1387,838.5 1454.5,906 1522,973.5C 1533.3,990.768 1533.3,1008.1 1522,1025.5C 1454.83,1092.67 1387.67,1159.83 1320.5,1227C 1301.88,1239.98 1283.55,1239.65 1265.5,1226C 1199,1159.5 1132.5,1093 1066,1026.5C 1053.33,1008.49 1053.33,990.487 1066,972.5C 1132.83,905.667 1199.67,838.833 1266.5,772C 1272.15,768.01 1278.15,764.843 1284.5,762.5 Z"/></g>
    <g><path style="opacity:1" fill="#60789b" d="M 994.5,1065.5 C 1004.85,1065.34 1014.52,1067.84 1023.5,1073C 1091.67,1141.17 1159.83,1209.33 1228,1277.5C 1237.3,1290.87 1238.97,1305.2 1233,1320.5C 1230.83,1324.84 1228.16,1328.84 1225,1332.5C 1159.83,1397.67 1094.67,1462.83 1029.5,1528C 1016.39,1539.58 1001.39,1542.91 984.5,1538C 978.984,1535.41 973.984,1532.08 969.5,1528C 903.667,1462.17 837.833,1396.33 772,1330.5C 763.677,1319.52 760.677,1307.18 763,1293.5C 764.53,1288.11 766.863,1283.11 770,1278.5C 838.5,1210 907,1141.5 975.5,1073C 981.485,1069.33 987.819,1066.83 994.5,1065.5 Z"/></g>
</svg>